<svg fill="#FFFFFF" xmlns="http://www.w3.org/2000/svg"  viewBox="0 0 50 50" width="50px" height="50px"><path d="M 25 1.9902344 C 12.259661 1.9902344 1.9902344 12.259661 1.9902344 25 C 1.9902344 37.740339 12.259661 48.009766 25 48.009766 C 37.740339 48.009766 48.009766 37.740339 48.009766 25 C 48.009766 12.259661 37.740339 1.9902344 25 1.9902344 z M 25 4.0097656 C 36.659661 4.0097656 45.990234 13.340339 45.990234 25 C 45.990234 36.659661 36.659661 45.990234 25 45.990234 C 13.340339 45.990234 4.0097656 36.659661 4.0097656 25 C 4.0097656 13.340339 13.340339 4.0097656 25 4.0097656 z M 21.900391 13.900391 C 18.937172 13.900391 16.339413 14.180543 14.453125 14.460938 C 13.509981 14.601135 12.743977 14.740714 12.203125 14.845703 C 11.932699 14.898203 11.71738 14.943323 11.570312 14.972656 C 11.505653 14.985556 11.460803 14.99387 11.427734 15 L 11.365234 15 L 11.236328 15.035156 C 9.6811576 15.459294 8.7335762 17.026857 9.015625 18.578125 C 9.3194897 20.249381 11.01495 21.167597 12.576172 20.884766 C 12.576172 20.884766 12.578125 20.884766 12.578125 20.884766 C 12.601275 20.881066 12.619405 20.8788 12.640625 20.875 C 12.684365 20.8672 12.736915 20.85602 12.802734 20.84375 C 12.934366 20.81921 13.118209 20.785401 13.353516 20.744141 C 13.824128 20.661631 14.498466 20.551731 15.332031 20.441406 C 16.999115 20.220792 19.306994 20 21.900391 20 L 22 20 C 26.293939 20 32.549313 20.710241 37.5 23.566406 L 37.445312 23.53125 C 37.958661 23.873485 38.477778 24 39 24 C 40.05843 24 41.092073 23.394403 41.574219 22.345703 C 42.395998 20.986304 41.906844 19.1777 40.513672 18.341797 L 40.509766 18.339844 L 40.503906 18.335938 C 34.264648 14.696391 27.008844 13.900391 22 13.900391 L 21.900391 13.900391 z M 21.900391 15.900391 L 22 15.900391 C 26.789669 15.900391 33.730581 16.704717 39.490234 20.0625 C 40.054847 20.405243 40.153019 20.916956 39.867188 21.345703 L 39.816406 21.421875 L 39.78125 21.505859 C 39.648781 21.814965 39.319048 22 39 22 C 38.92222 22 38.64134 21.924959 38.554688 21.867188 L 38.527344 21.849609 L 38.5 21.833984 C 33.050687 18.69015 26.506061 18 22 18 L 21.900391 18 C 19.193787 18 16.801229 18.229634 15.068359 18.458984 C 14.201925 18.57366 13.4997 18.687196 13.007812 18.773438 C 12.761869 18.816557 12.567977 18.854218 12.435547 18.878906 C 12.383457 18.888606 12.350828 18.894811 12.320312 18.900391 L 12.310547 18.900391 L 12.220703 18.916016 C 11.582466 19.032059 11.080383 18.748747 10.984375 18.220703 C 10.867643 17.578675 11.119859 17.153884 11.75 16.974609 C 11.7526 16.97403 11.760672 16.973256 11.763672 16.972656 C 11.821422 16.962236 11.885643 16.949004 11.962891 16.933594 C 12.117385 16.902774 12.32316 16.861174 12.583984 16.810547 C 13.105632 16.709286 13.839238 16.574256 14.746094 16.439453 C 16.559806 16.169847 19.063609 15.900391 21.900391 15.900391 z M 22.099609 21.900391 C 19.588385 21.900391 17.416009 22.131097 15.824219 22.375 C 15.028323 22.496952 14.378137 22.621955 13.902344 22.724609 C 13.475179 22.816769 13.276867 22.865758 13.078125 22.927734 C 11.604468 23.259647 10.702681 24.791233 11.15625 26.261719 C 11.5164 27.724468 13.044888 28.638683 14.515625 28.148438 L 14.443359 28.169922 C 14.443359 28.169922 17.934115 27.300781 22.300781 27.300781 C 26.200781 27.300781 30.57623 27.876468 34.871094 30.548828 L 34.845703 30.53125 C 35.273714 30.816594 35.778559 31 36.300781 31 C 37.223556 31 38.07971 30.453453 38.609375 29.675781 C 39.54805 28.397454 39.086673 26.636934 37.830078 25.851562 L 37.826172 25.849609 L 37.824219 25.847656 C 32.403689 22.511946 26.688498 21.900391 22.099609 21.900391 z M 22.099609 23.900391 C 26.509117 23.900391 31.791649 24.487452 36.769531 27.548828 C 37.105832 27.759016 37.24 28.18 37 28.5 L 36.982422 28.521484 L 36.96875 28.544922 C 36.696758 28.952912 36.567448 29 36.300781 29 C 36.223001 29 36.12707 28.98185 35.955078 28.867188 L 35.941406 28.859375 L 35.927734 28.851562 C 31.222599 25.923922 26.400781 25.300781 22.300781 25.300781 C 17.667448 25.300781 13.957031 26.230469 13.957031 26.230469 L 13.919922 26.238281 L 13.882812 26.251953 C 13.573104 26.355189 13.143461 26.086006 13.076172 25.783203 L 13.064453 25.732422 L 13.048828 25.683594 C 12.945592 25.373886 13.214775 24.944243 13.517578 24.876953 L 13.566406 24.865234 L 13.617188 24.849609 C 13.549888 24.872039 13.887512 24.773908 14.324219 24.679688 C 14.760926 24.585468 15.372848 24.467112 16.126953 24.351562 C 17.635163 24.120466 19.710834 23.900391 22.099609 23.900391 z M 22.5 29 C 20.312698 29 18.398579 29.285165 17.011719 29.570312 C 16.318289 29.712888 15.755749 29.855764 15.361328 29.962891 C 15.164118 30.016451 15.008314 30.062081 14.904297 30.091797 C 14.890367 30.095797 14.887 30.096209 14.875 30.099609 L 14.794922 30.099609 L 14.605469 30.181641 C 14.001912 30.440308 13.55847 30.898684 13.28125 31.453125 C 13.00403 32.007566 12.89128 32.71702 13.181641 33.394531 C 13.667281 34.527692 15.004303 35.34116 16.351562 34.835938 L 16.306641 34.851562 C 16.306641 34.851562 18.962162 34 22.5 34 C 26.837037 34 29.811211 35.039644 32.160156 36.542969 L 31.992188 36.40625 C 32.427889 36.841952 32.977778 37 33.5 37 C 34.239226 37 35.074123 36.716648 35.527344 35.912109 C 36.280322 34.784425 35.949637 33.24974 34.880859 32.486328 L 34.878906 32.484375 L 34.876953 32.482422 C 31.278937 29.942674 27.133333 29 22.5 29 z M 22.5 31 C 26.865013 31 30.51773 31.856995 33.71875 34.115234 C 34.028012 34.337085 34.077272 34.551586 33.886719 34.818359 L 33.839844 34.882812 L 33.804688 34.953125 C 33.843199 34.876103 33.733333 35 33.5 35 C 33.42222 35 33.370548 34.956478 33.40625 34.992188 L 33.330078 34.916016 L 33.238281 34.857422 C 30.587228 33.160729 27.162963 32 22.5 32 C 18.637838 32 15.693359 32.947266 15.693359 32.947266 L 15.671875 32.955078 L 15.648438 32.962891 C 15.395698 33.057671 15.133891 32.872311 15.019531 32.605469 C 15.009931 32.582979 14.997533 32.493216 15.070312 32.347656 C 15.139822 32.208636 15.283974 32.083016 15.380859 32.035156 C 15.404569 32.028456 15.425255 32.021632 15.453125 32.013672 C 15.559655 31.983232 15.702288 31.942142 15.884766 31.892578 C 16.24972 31.793458 16.769992 31.661722 17.414062 31.529297 C 18.7022 31.264467 20.487302 31 22.5 31 z"/></svg>